# xmcd
#
# Track frame offsets:
#	150
#	4567
#	15912
#	34126
#	55935
#	81410
#	104669
#	125760
#	142712
#	162478
#
# Disc length: 2548 seconds
#
# Revision: 1
# Processed by: cddbd v1.5.2PL0 Copyright (c) Steve Scherf et al.
# Submitted via: FairStars CD Ripper 1.90
#
DISCID=7a09f20a
DTITLE=The Hazy  Janes - That Was The Winter It Was
DYEAR=2011
DGENRE=Alternative
TTITLE0=Cascade River Gardens
TTITLE1=Carmelite
TTITLE2=Girl In The Night
TTITLE3=Aspen
TTITLE4=You Only Stand To Lose If I Stay
TTITLE5=Wake To Guide Love
TTITLE6=Southern Lawns
TTITLE7=The Darkness Ends
TTITLE8=Paperhearts
TTITLE9=Everything Starts Again
EXTD=
EXTT0=
EXTT1=
EXTT2=
EXTT3=
EXTT4=
EXTT5=
EXTT6=
EXTT7=
EXTT8=
EXTT9=
PLAYORDER=
